<svg xmlns="http://www.w3.org/2000/svg" xmlns:xlink="http://www.w3.org/1999/xlink"
     width="24" height="24" viewBox="0 0 24 24">
    <defs>
        <clipPath id="b">
            <rect width="24" height="24"></rect>
        </clipPath>
    </defs>
    <g id="a" clip-path="url(#b)">
        <path d="M0,0H24V24H0Z" fill="none"></path>
        <path d="M0,0H24V24H0Z" fill="none"></path>
        <g transform="translate(2 4)">
            <path d="M18.688,11.313A8.881,8.881,0,0,0,12,3.938,2.228,2.228,0,0,0,12.5,2.5a2.5,2.5,0,0,0-5,0A2.543,2.543,0,0,0,8,4a8.806,8.806,0,0,0-6.687,7.375A1.764,1.764,0,0,0,0,13.125,1.842,1.842,0,0,0,1.875,15h16.25A1.842,1.842,0,0,0,20,13.125,1.9,1.9,0,0,0,18.688,11.313ZM10,1.25A1.25,1.25,0,1,1,8.75,2.5,1.254,1.254,0,0,1,10,1.25ZM10,5a7.463,7.463,0,0,1,7.375,6.25H2.625A7.463,7.463,0,0,1,10,5Zm8.125,8.75H1.875a.625.625,0,0,1,0-1.25h16.25a.625.625,0,0,1,0,1.25Z"></path>
            <path d="M15.625,10a.625.625,0,0,0,0,1.25h0A4.91,4.91,0,0,1,19.75,13.5a.633.633,0,0,0,1.063-.687A6.289,6.289,0,0,0,15.625,10Z"
                  transform="translate(-5.625 -3.75)"></path>
        </g>
    </g>
</svg>
