<svg xmlns="http://www.w3.org/2000/svg" xmlns:xlink="http://www.w3.org/1999/xlink"
     width="24" height="24" viewBox="0 0 24 24">
    <defs>
        <clipPath id="b">
            <rect width="24" height="24"></rect>
        </clipPath>
    </defs>
    <g id="a" clip-path="url(#b)">
        <path d="M0,0H24V24H0Z" fill="none"></path>
        <path d="M22,5.7,17.4,1.8,16.1,3.3l4.6,3.9ZM7.9,3.4,6.6,1.9,2,5.7,3.3,7.2,7.9,3.4ZM12.5,8H11v6l4.7,2.9.8-1.2-4-2.4ZM12,4a9,9,0,1,0,9,9A8.963,8.963,0,0,0,12,4Zm0,16a7,7,0,1,1,7-7A6.957,6.957,0,0,1,12,20Z"
              transform="translate(0 0.2)"></path>
        <path d="M0,0H24V24H0Z" fill="none"></path>
    </g>
</svg>